<svg viewport-fill="#F6F6F6" xmlns:dc="http://purl.org/dc/elements/1.1/" xmlns:cc="http://creativecommons.org/ns#" xmlns:rdf="http://www.w3.org/1999/02/22-rdf-syntax-ns#" xmlns:svg="http://www.w3.org/2000/svg" xmlns="http://www.w3.org/2000/svg" xmlns:xlink="http://www.w3.org/1999/xlink" id="svg6" viewBox="0 0 1024 768" height="768px" width="1024px" version="1.1">
  
  <defs id="defs10"></defs>
  <style><![CDATA[  #title path, #title polygon{ fill: #4B889C !important; } #tagline path, #tagline polygon{ fill: #eea034 !important; }  #icon *{ fill: #eea034 !important; } ]]> </style><g id="logo-group"><rect x="0" y="0" width="1024" height="768" style="fill: #F6F6F6" />
    <g id="icon" transform="translate(-46.5 297) "><svg x="458.75" y="0" width="106.5" height="106.5" viewBox="0 0 100 100"><g><path d="M25.721,40.943c-0.242-0.062-0.488-0.094-0.733-0.094c-1.333,0-2.496,0.903-2.83,2.196c-0.4,1.56,0.543,3.157,2.104,3.56   c1.551,0.402,3.167-0.571,3.562-2.102C28.226,42.942,27.282,41.344,25.721,40.943z"></path><path d="M67.898,29.559c-0.241-0.062-0.487-0.094-0.731-0.094c-1.332,0-2.494,0.904-2.827,2.198   c-0.195,0.757-0.083,1.544,0.313,2.216c0.397,0.672,1.032,1.148,1.788,1.342c1.566,0.408,3.167-0.568,3.562-2.1   c0.194-0.756,0.083-1.543-0.314-2.216C69.291,30.232,68.655,29.753,67.898,29.559z"></path><path d="M50.584,47.346c-0.24-0.062-0.486-0.093-0.731-0.093c-1.332,0-2.494,0.903-2.827,2.196   c-0.196,0.757-0.084,1.544,0.312,2.217s1.032,1.149,1.787,1.344c1.563,0.401,3.166-0.571,3.56-2.1   C53.087,49.346,52.145,47.749,50.584,47.346z"></path><path d="M88.678,38.92c0.084-0.613,0.143-1.234,0.143-1.871c0-6.816-4.968-12.46-11.476-13.543   c-3.297-5.928-9.617-9.943-16.88-9.943c-2.505,0-4.891,0.492-7.086,1.36c-2.682-2.153-6.08-3.448-9.785-3.448   c-4.819,0-9.125,2.18-11.997,5.604c-1.009-0.242-2.056-0.385-3.138-0.385c-7.344,0-13.301,5.911-13.388,13.235   c-4.245,2.557-7.094,7.196-7.094,12.513c0,8.069,6.544,14.612,14.615,14.612c0.171,0,0.337-0.02,0.507-0.025   c3.237,5.773,9.35,9.704,16.4,9.864c1.442,5.739,2.426,12.88,2.426,20.209c0,0.786,0.64,1.424,1.427,1.424h7.131   c0.787,0,1.427-0.638,1.427-1.424c0-7.687,1.082-15.162,2.641-21.035c1.849,1.076,3.99,1.703,6.282,1.703   c3.494,0,6.649-1.432,8.921-3.737c1.837,0.715,3.827,1.121,5.917,1.121c9.031,0,16.352-7.32,16.352-16.352   C92.022,45.084,90.768,41.667,88.678,38.92z M72.628,33.797c-0.641,2.491-2.882,4.23-5.45,4.23c-0.475,0-0.95-0.061-1.413-0.181   c-0.509-0.13-0.976-0.35-1.418-0.606l-9.71,9.972c0.781,1.262,1.072,2.826,0.673,4.374c-0.641,2.489-2.882,4.229-5.45,4.229   c-0.474,0-0.949-0.061-1.411-0.18c-1.455-0.374-2.68-1.294-3.445-2.591s-0.979-2.814-0.603-4.272   c0.123-0.478,0.321-0.917,0.553-1.333l-5.218-4.896l-9.125,1.614c-0.023,0.34-0.073,0.682-0.161,1.023   c-0.644,2.491-2.886,4.23-5.454,4.23c-0.474,0-0.949-0.061-1.411-0.18c-3.006-0.775-4.824-3.853-4.052-6.86   c0.644-2.492,2.887-4.231,5.456-4.231c0.473,0,0.947,0.06,1.409,0.179c1.729,0.444,3.062,1.653,3.738,3.17l9.795-1.733   c0.421-0.077,0.853,0.054,1.164,0.346l5.711,5.359c0.888-0.575,1.931-0.918,3.047-0.918c0.473,0,0.947,0.06,1.408,0.179   c0.518,0.133,0.996,0.339,1.436,0.597l9.697-9.958c-0.021-0.036-0.052-0.065-0.073-0.101c-0.767-1.296-0.981-2.813-0.605-4.271   c0.64-2.492,2.882-4.233,5.452-4.233c0.473,0,0.947,0.061,1.408,0.18c1.458,0.375,2.683,1.296,3.448,2.594   C72.789,30.824,73.003,32.34,72.628,33.797z"></path></g></svg></g>
    <g id="title" style="font-style:normal;font-weight:700;font-size:72px;line-height:1;font-family:'Comfortaa Bold Alt1';font-variant-ligatures:none;text-align:center;text-anchor:middle" aria-label="epilepc">
      <path id="path14" style="font-style: normal; font-weight: 700; font-size: 72px; line-height: 1; font-family: &quot;Comfortaa Bold Alt1&quot;; font-variant-ligatures: none; text-align: center; text-anchor: middle; fill: rgb(75, 136, 156);" d="m 415.22413,-18 c 0.57599,-0.576 0.93599,-1.368 0.93599,-2.304 0,-3.744 -0.71999,-7.128 -2.15999,-10.08 -1.44001,-2.88 -3.52801,-5.184 -6.192,-6.84 -2.736,-1.584 -5.904,-2.448 -9.57601,-2.448 -3.74399,0 -7.128,0.864 -10.08,2.592 -2.95199,1.728 -5.256,4.104 -6.912,7.128 -1.656,3.024 -2.448,6.48 -2.448,10.296 0,3.888 0.864,7.272 2.592,10.296 1.728,3.024 4.176,5.4 7.344,7.128 3.096,1.728 6.624,2.52 10.584,2.52 2.16,0 4.464,-0.36 6.91201,-1.224 2.44799,-0.792 4.464,-1.872 6.12,-3.168 0.71999,-0.576 1.15199,-1.296 1.15199,-2.16 0,-0.864 -0.432,-1.728 -1.29599,-2.448 -0.57601,-0.432 -1.296,-0.72 -2.16001,-0.72 -0.936,0 -1.728,0.288 -2.37599,0.792 -1.00801,0.792 -2.30401,1.44 -3.88801,1.944 -1.584,0.576 -3.024,0.792 -4.464,0.792 -3.672,0 -6.768,-1.008 -9.28799,-3.096 -2.52001,-2.016 -4.03201,-4.752 -4.536,-8.136 h 27.35999 c 0.93601,0 1.728,-0.288 2.37601,-0.864 z m -25.56,-12.6 c 2.15999,-1.872 5.03999,-2.88 8.56799,-2.88 3.168,0 5.688,1.008 7.704,2.88 1.94401,1.944 3.168,4.536 3.6,7.704 h -23.976 c 0.576,-3.168 1.944,-5.76 4.10401,-7.704 z" transform="translate(0 369.95128) translate(289.84277 33.23552000000001) scale(1.84) translate(-378.79212 39.672)"></path>
      <path id="path16" style="font-style: normal; font-weight: 700; font-size: 72px; line-height: 1; font-family: &quot;Comfortaa Bold Alt1&quot;; font-variant-ligatures: none; text-align: center; text-anchor: middle; fill: rgb(75, 136, 156);" d="m 465.19887,-19.656 c 0,-3.744 -0.864,-7.128 -2.592,-10.152 -1.728,-3.024 -4.17599,-5.472 -7.19999,-7.2 -3.024,-1.728 -6.40801,-2.664 -10.08001,-2.664 h -0.28799 -0.144 -15.91201 c -1.008,0 -1.79999,0.36 -2.448,1.008 -0.72,0.72 -1.00799,1.512 -1.00799,2.448 v 15.336 1.224 32.832 c 0,1.152 0.28799,2.016 1.00799,2.664 0.64801,0.72 1.512,1.008 2.664,1.008 1.00801,0 1.872,-0.288 2.59201,-1.008 0.71999,-0.648 1.07999,-1.512 1.07999,-2.664 v -19.44 c 1.65601,2.088 3.672,3.672 6.12001,4.824 2.37599,1.152 4.96799,1.728 7.776,1.728 3.45599,0 6.55199,-0.864 9.35999,-2.592 2.80801,-1.728 5.04,-4.104 6.624,-7.128 1.584,-3.024 2.448,-6.48 2.448,-10.224 z m -7.056,0 c 0,2.592 -0.576,4.896 -1.728,6.912 -1.152,2.016 -2.664,3.672 -4.608,4.824 -1.944,1.152 -4.104,1.728 -6.48,1.728 -2.448,0 -4.60799,-0.576 -6.552,-1.728 -1.944,-1.152 -3.456,-2.808 -4.536,-4.824 -1.15199,-2.016 -1.656,-4.32 -1.656,-6.912 0,-2.52 0.50401,-4.824 1.656,-6.912 1.08,-2.016 2.592,-3.672 4.536,-4.824 1.94401,-1.152 4.104,-1.8 6.552,-1.8 2.376,0 4.536,0.648 6.48,1.8 1.944,1.152 3.456,2.808 4.608,4.824 1.152,2.088 1.728,4.392 1.728,6.912 z" transform="translate(0 369.95128) translate(368.19872839999994 33.23552000000001) scale(1.84) translate(-425.52688 39.672)"></path>
      <path id="path18" style="font-style: normal; font-weight: 700; font-size: 72px; line-height: 1; font-family: &quot;Comfortaa Bold Alt1&quot;; font-variant-ligatures: none; text-align: center; text-anchor: middle; fill: rgb(75, 136, 156);" d="m 477.87988,-38.376 c -0.72001,0.72 -1.00801,1.584 -1.00801,2.664 v 32.04 c 0,1.08 0.288,1.944 1.00801,2.664 0.71999,0.72 1.584,1.008 2.664,1.008 1.07999,0 1.94399,-0.288 2.66399,-1.008 0.64801,-0.72 1.008,-1.584 1.008,-2.664 v -32.04 c 0,-1.08 -0.35999,-1.944 -1.008,-2.664 -0.72,-0.648 -1.584,-1.008 -2.66399,-1.008 -1.08,0 -1.94401,0.36 -2.664,1.008 z" transform="translate(0 369.95128) translate(455.03750999999994 33.76544) scale(1.84) translate(-476.87187 39.384)"></path>
      <path id="path20" style="font-style: normal; font-weight: 700; font-size: 72px; line-height: 1; font-family: &quot;Comfortaa Bold Alt1&quot;; font-variant-ligatures: none; text-align: center; text-anchor: middle; fill: rgb(75, 136, 156);" d="m 497.51675,-55.224 c -0.72,0.72 -1.008,1.584 -1.008,2.592 v 39.312 c 0,2.592 0.432,4.896 1.368,6.912 0.864,2.016 2.16,3.6 3.816,4.752 1.656,1.152 3.528,1.656 5.616,1.656 h 0.144 c 1.44,0 2.592,-0.288 3.528,-1.008 0.864,-0.648 1.368,-1.512 1.368,-2.592 0,-1.008 -0.36,-1.872 -0.936,-2.592 -0.576,-0.648 -1.368,-1.008 -2.304,-1.008 h -1.8 c -1.08,0 -1.944,-0.576 -2.592,-1.728 -0.72,-1.152 -1.008,-2.592 -1.008,-4.392 v -39.312 c 0,-1.008 -0.36,-1.872 -1.008,-2.592 -0.72,-0.648 -1.584,-1.008 -2.592,-1.008 -1.08,0 -1.944,0.36 -2.592,1.008 z" transform="translate(0 369.95128) translate(483.5333692 2.765119999999996) scale(1.84) translate(-496.50875 56.232)"></path>
      <path id="path22" style="font-style: normal; font-weight: 700; font-size: 72px; line-height: 1; font-family: &quot;Comfortaa Bold Alt1&quot;; font-variant-ligatures: none; text-align: center; text-anchor: middle; fill: rgb(75, 136, 156);" d="m 551.91162,-18 c 0.576,-0.576 0.936,-1.368 0.936,-2.304 0,-3.744 -0.72,-7.128 -2.15999,-10.08 -1.44001,-2.88 -3.52801,-5.184 -6.192,-6.84 -2.736,-1.584 -5.904,-2.448 -9.57601,-2.448 -3.744,0 -7.128,0.864 -10.08,2.592 -2.952,1.728 -5.256,4.104 -6.91199,7.128 -1.65601,3.024 -2.448,6.48 -2.448,10.296 0,3.888 0.86399,7.272 2.592,10.296 1.72799,3.024 4.17599,5.4 7.34399,7.128 3.096,1.728 6.624,2.52 10.58401,2.52 2.15999,0 4.46399,-0.36 6.91199,-1.224 2.44801,-0.792 4.46401,-1.872 6.12,-3.168 0.72,-0.576 1.152,-1.296 1.152,-2.16 0,-0.864 -0.432,-1.728 -1.296,-2.448 -0.57599,-0.432 -1.29599,-0.72 -2.16,-0.72 -0.936,0 -1.72799,0.288 -2.37599,0.792 -1.00801,0.792 -2.304,1.44 -3.88801,1.944 -1.58399,0.576 -3.024,0.792 -4.46399,0.792 -3.67201,0 -6.76801,-1.008 -9.288,-3.096 -2.52,-2.016 -4.03201,-4.752 -4.53601,-8.136 h 27.36 c 0.93601,0 1.72801,-0.288 2.376,-0.864 z m -25.55999,-12.6 c 2.15999,-1.872 5.03999,-2.88 8.56799,-2.88 3.168,0 5.688,1.008 7.704,2.88 1.94401,1.944 3.168,4.536 3.6,7.704 h -23.976 c 0.576,-3.168 1.94401,-5.76 4.10401,-7.704 z" transform="translate(0 369.95128) translate(510.8037884000001 33.23552000000001) scale(1.84) translate(-515.47963 39.672)"></path>
      <path id="path24" style="font-style: normal; font-weight: 700; font-size: 72px; line-height: 1; font-family: &quot;Comfortaa Bold Alt1&quot;; font-variant-ligatures: none; text-align: center; text-anchor: middle; fill: rgb(75, 136, 156);" d="m 601.88638,-19.656 c 0,-3.744 -0.86401,-7.128 -2.59201,-10.152 -1.728,-3.024 -4.17599,-5.472 -7.19999,-7.2 -3.024,-1.728 -6.40801,-2.664 -10.08001,-2.664 h -0.288 -0.144 -15.91199 c -1.00801,0 -1.80001,0.36 -2.448,1.008 -0.72,0.72 -1.008,1.512 -1.008,2.448 v 15.336 1.224 32.832 c 0,1.152 0.288,2.016 1.008,2.664 0.64799,0.72 1.51199,1.008 2.664,1.008 1.00799,0 1.87199,-0.288 2.592,-1.008 0.72,-0.648 1.07999,-1.512 1.07999,-2.664 v -19.44 c 1.65601,2.088 3.672,3.672 6.12,4.824 2.37601,1.152 4.96801,1.728 7.77601,1.728 3.456,0 6.552,-0.864 9.36,-2.592 2.808,-1.728 5.03999,-4.104 6.62399,-7.128 1.584,-3.024 2.44801,-6.48 2.44801,-10.224 z m -7.05601,0 c 0,2.592 -0.576,4.896 -1.72799,6.912 -1.15201,2.016 -2.66401,3.672 -4.60801,4.824 -1.94399,1.152 -4.104,1.728 -6.48,1.728 -2.448,0 -4.60799,-0.576 -6.552,-1.728 -1.944,-1.152 -3.45599,-2.808 -4.536,-4.824 -1.152,-2.016 -1.656,-4.32 -1.656,-6.912 0,-2.52 0.504,-4.824 1.656,-6.912 1.08001,-2.016 2.592,-3.672 4.536,-4.824 1.94401,-1.152 4.104,-1.8 6.552,-1.8 2.376,0 4.53601,0.648 6.48,1.8 1.944,1.152 3.456,2.808 4.60801,4.824 1.15199,2.088 1.72799,4.392 1.72799,6.912 z" transform="translate(0 369.95128) translate(589.1597284000001 33.23552000000001) scale(1.84) translate(-562.21438 39.672)"></path>
      <path id="path26" style="font-style: normal; font-weight: 700; font-size: 72px; line-height: 1; font-family: &quot;Comfortaa Bold Alt1&quot;; font-variant-ligatures: none; text-align: center; text-anchor: middle; fill: rgb(75, 136, 156);" d="m 644.44737,-33.192 c -3.74399,-4.32 -8.496,-6.48 -14.112,-6.48 -3.744,0 -7.128,0.864 -10.08,2.592 -3.024,1.728 -5.328,4.104 -6.98399,7.128 -1.65601,3.024 -2.448,6.48 -2.448,10.296 0,3.744 0.79199,7.2 2.52,10.224 1.72799,3.024 4.10399,5.4 7.12799,7.128 3.024,1.728 6.408,2.592 10.22401,2.592 5.18399,0 9.504,-1.584 12.96,-4.824 0.57599,-0.576 0.86399,-1.224 0.86399,-1.944 0,-0.936 -0.504,-1.8 -1.36799,-2.592 -0.57601,-0.432 -1.22401,-0.648 -1.87201,-0.648 -0.86399,0 -1.8,0.36 -2.664,1.008 -2.016,1.728 -4.67999,2.52 -7.91999,2.52 -2.52,0 -4.752,-0.576 -6.69601,-1.728 -1.94399,-1.152 -3.456,-2.736 -4.53599,-4.752 -1.08001,-2.016 -1.58401,-4.392 -1.58401,-6.984 0,-4.032 1.15201,-7.344 3.456,-9.792 2.304,-2.448 5.256,-3.744 9,-3.744 1.8,0 3.38401,0.36 4.824,0.936 1.44,0.576 2.73601,1.512 3.96,2.808 0.72001,0.864 1.65601,1.296 2.808,1.296 0.576,0 1.15201,-0.144 1.65601,-0.504 1.00799,-0.72 1.58399,-1.584 1.58399,-2.664 0,-0.72 -0.288,-1.296 -0.72,-1.872 z" transform="translate(0 369.95128) translate(670.9642884000001 33.23552000000001) scale(1.84) translate(-610.82338 39.672)"></path>
    </g>
    <g id="tagline" style="font-style:normal;font-weight:400;font-size:32px;line-height:1;font-family:Montserrat;font-variant-ligatures:none;text-align:center;text-anchor:middle"></g>
  </g>
</svg>