<?xml version="1.0" encoding="UTF-8"?>
<svg xmlns="http://www.w3.org/2000/svg" xmlns:xlink="http://www.w3.org/1999/xlink" width="85pt" height="85pt" viewBox="0 0 85 85" version="1.1">
<g id="surface1">
<path style=" stroke:none;fill-rule:nonzero;fill:rgb(100%,100%,100%);fill-opacity:1;" d="M 77.363281 42.5 C 77.363281 61.753906 61.753906 77.363281 42.5 77.363281 C 23.246094 77.363281 7.636719 61.753906 7.636719 42.5 C 7.636719 23.246094 23.246094 7.636719 42.5 7.636719 C 61.753906 7.636719 77.363281 23.246094 77.363281 42.5 Z M 77.363281 42.5 "/>
<path style=" stroke:none;fill-rule:nonzero;fill:rgb(75%,47%,19%);fill-opacity:1;" d="M 32.421875 38.742188 C 32.324219 38.714844 32.222656 38.703125 32.117188 38.703125 C 31.566406 38.703125 31.082031 39.078125 30.945312 39.613281 C 30.777344 40.261719 31.167969 40.921875 31.816406 41.089844 C 32.460938 41.257812 33.132812 40.855469 33.296875 40.21875 C 33.464844 39.570312 33.070312 38.90625 32.421875 38.742188 Z M 32.421875 38.742188 "/>
<path style=" stroke:none;fill-rule:nonzero;fill:rgb(75%,47%,19%);fill-opacity:1;" d="M 49.929688 34.015625 C 49.828125 33.992188 49.726562 33.976562 49.625 33.976562 C 49.070312 33.976562 48.589844 34.351562 48.453125 34.890625 C 48.371094 35.203125 48.417969 35.53125 48.582031 35.808594 C 48.746094 36.089844 49.011719 36.285156 49.324219 36.367188 C 49.972656 36.535156 50.636719 36.128906 50.800781 35.496094 C 50.882812 35.179688 50.835938 34.855469 50.671875 34.574219 C 50.507812 34.296875 50.242188 34.097656 49.929688 34.015625 Z M 49.929688 34.015625 "/>
<path style=" stroke:none;fill-rule:nonzero;fill:rgb(75%,47%,19%);fill-opacity:1;" d="M 42.742188 41.398438 C 42.644531 41.371094 42.539062 41.359375 42.4375 41.359375 C 41.886719 41.359375 41.402344 41.734375 41.265625 42.269531 C 41.183594 42.585938 41.230469 42.914062 41.394531 43.191406 C 41.558594 43.472656 41.824219 43.667969 42.136719 43.75 C 42.785156 43.914062 43.449219 43.511719 43.613281 42.878906 C 43.78125 42.230469 43.390625 41.566406 42.742188 41.398438 Z M 42.742188 41.398438 "/>
<path style=" stroke:none;fill-rule:nonzero;fill:rgb(75%,47%,19%);fill-opacity:1;" d="M 58.554688 37.902344 C 58.585938 37.648438 58.613281 37.390625 58.613281 37.125 C 58.613281 34.296875 56.550781 31.953125 53.847656 31.503906 C 52.480469 29.042969 49.859375 27.378906 46.84375 27.378906 C 45.804688 27.378906 44.8125 27.582031 43.902344 27.941406 C 42.789062 27.046875 41.378906 26.511719 39.839844 26.511719 C 37.839844 26.511719 36.054688 27.414062 34.863281 28.835938 C 34.441406 28.734375 34.007812 28.675781 33.558594 28.675781 C 30.511719 28.675781 28.039062 31.128906 28.003906 34.167969 C 26.242188 35.230469 25.058594 37.15625 25.058594 39.363281 C 25.058594 42.710938 27.773438 45.425781 31.125 45.425781 C 31.195312 45.425781 31.265625 45.417969 31.335938 45.417969 C 32.679688 47.8125 35.214844 49.445312 38.140625 49.511719 C 38.738281 51.894531 39.148438 54.855469 39.148438 57.898438 C 39.148438 58.226562 39.414062 58.488281 39.742188 58.488281 L 42.699219 58.488281 C 43.027344 58.488281 43.292969 58.226562 43.292969 57.898438 C 43.292969 54.707031 43.742188 51.605469 44.390625 49.167969 C 45.15625 49.613281 46.042969 49.875 46.996094 49.875 C 48.445312 49.875 49.753906 49.28125 50.699219 48.324219 C 51.460938 48.621094 52.285156 48.789062 53.15625 48.789062 C 56.902344 48.789062 59.941406 45.75 59.941406 42.003906 C 59.941406 40.460938 59.421875 39.042969 58.554688 37.902344 Z M 51.890625 35.773438 C 51.625 36.808594 50.695312 37.53125 49.628906 37.53125 C 49.433594 37.53125 49.234375 37.503906 49.042969 37.457031 C 48.832031 37.402344 48.636719 37.308594 48.453125 37.203125 L 44.425781 41.34375 C 44.75 41.867188 44.871094 42.515625 44.703125 43.160156 C 44.4375 44.191406 43.507812 44.914062 42.441406 44.914062 C 42.246094 44.914062 42.046875 44.886719 41.855469 44.839844 C 41.253906 44.683594 40.742188 44.300781 40.425781 43.761719 C 40.109375 43.226562 40.019531 42.59375 40.175781 41.992188 C 40.226562 41.792969 40.308594 41.609375 40.40625 41.4375 L 38.238281 39.40625 L 34.453125 40.074219 C 34.441406 40.214844 34.421875 40.359375 34.386719 40.5 C 34.117188 41.535156 33.1875 42.253906 32.121094 42.253906 C 31.925781 42.253906 31.726562 42.230469 31.535156 42.179688 C 30.289062 41.859375 29.535156 40.582031 29.855469 39.332031 C 30.121094 38.300781 31.054688 37.578125 32.121094 37.578125 C 32.316406 37.578125 32.511719 37.601562 32.703125 37.652344 C 33.421875 37.835938 33.976562 38.335938 34.253906 38.96875 L 38.320312 38.246094 C 38.496094 38.214844 38.675781 38.269531 38.804688 38.390625 L 41.175781 40.617188 C 41.542969 40.378906 41.976562 40.234375 42.4375 40.234375 C 42.636719 40.234375 42.832031 40.257812 43.023438 40.308594 C 43.238281 40.363281 43.4375 40.449219 43.621094 40.558594 L 47.644531 36.421875 C 47.636719 36.410156 47.621094 36.398438 47.613281 36.382812 C 47.296875 35.84375 47.207031 35.214844 47.363281 34.609375 C 47.628906 33.574219 48.558594 32.851562 49.625 32.851562 C 49.820312 32.851562 50.019531 32.878906 50.210938 32.925781 C 50.816406 33.082031 51.324219 33.464844 51.640625 34.003906 C 51.957031 34.542969 52.046875 35.171875 51.890625 35.773438 Z M 51.890625 35.773438 "/>
</g>
</svg>
